<svg width="410" height="123" viewBox="0 0 410 123" fill="none" xmlns="http://www.w3.org/2000/svg">
<path d="M233.5 2.6C214.6 5.9 205.8 8.1 184 15.5C165.6 21.7 152.8 26.7 148 29.6C145.5 31.1 145.5 31.1 149 30.4C150.9 30.1 161.1 26.9 171.5 23.5C190.9 17 202.5 14.1 203.8 15.5C204.8 16.5 188.3 31.8 183.5 34.3C179.6 36.3 179 36.3 158 35.1C124 33.1 66.1 32.5 54.4 34C33.2 36.6 17.9 43.1 6.8 54.1C0.1 60.7 0 60.9 0 66V71.2L4.3 64.8C8.2 58.9 8.8 58.5 13.1 57.9C19 57 21 56 29.1 49.4C36.9 43 42.2 40.5 51 39C62.6 36.9 103.5 36.6 140.6 38.3C194.9 40.8 198.1 40.9 217.9 39.9C246.3 38.4 247.3 37.2 220.2 37.1C205.4 37 197 36.6 197.2 36C198 33.7 215.5 14.7 217.7 13.9C221.9 12.3 272.2 11.6 286 12.9C306.6 14.9 323.3 18.7 324.4 21.5C325.2 23.8 319.8 26.7 312.1 28C308.5 28.6 300.3 30.1 294 31.3C278 34.4 284.5 34.7 310.8 32.1C354.3 27.9 361.1 28.2 379.6 35.5C387.2 38.4 393.8 40.3 397.9 40.7C403.9 41.3 404.3 41.5 405.6 44.6C406.5 46.7 407 51.8 407 58.5C407 69.4 408.4 72.5 409.6 64.4C410.6 57.8 409.5 48.3 406.9 41.4C404.6 35.3 399.4 29 396.6 29C394.4 29 394.6 28.2 397.1 26.1C399.1 24.5 399.1 24.4 397.2 22.7C395.7 21.3 392.5 20.7 383.7 20C374.9 19.4 366.7 17.7 348.9 13.1C307.4 2.4 291 -0.0999965 262.5 0.100004C251.4 0.100004 243.9 0.800004 233.5 2.6ZM299.5 6.5C312.7 8.2 321.4 10.1 343 16C359.5 20.5 370.8 22.7 383 23.8C390.7 24.5 391.3 24.7 389.2 25.8C387.3 26.9 384.7 26.9 375.8 26C367.4 25.1 360.2 25.1 345.3 26C334.6 26.7 325.6 26.9 325.3 26.6C325 26.3 325.5 24.9 326.4 23.5C327.8 21.4 327.9 20.6 326.9 19.4C322.1 13.6 274.1 9 240 10.9C215.7 12.4 217.2 12.5 217.7 9.6C218.2 7 219.3 6.7 239 4.9C251.4 3.8 285.6 4.7 299.5 6.5Z" fill="#FFFEFE"/>
<path d="M331.9 37C321.3 38.8 313.3 44.3 304.4 55.7L298.3 63.5L291.9 63.3C288.4 63.2 279.9 62.6 273 62C256.3 60.6 195.7 59.6 190 60.7C186.9 61.4 197.4 61.8 224 62.3C265.1 63 280.6 64.1 287.3 66.7C289.6 67.6 294.7 68.5 298.5 68.7L305.5 69L310.5 61.8C319.3 49 330 43.6 346 43.7C357.7 43.8 364.6 46.5 372.1 54C375.2 57.1 378.7 61.5 379.9 63.7C382.9 69.7 384.4 70 382 64.1C379.2 56.9 376 52.2 370.7 47.3C360.8 38.2 346.8 34.5 331.9 37Z" fill="white"/>
<path d="M51 51.9C42.4 54.7 34.3 60.8 29.8 67.9C26.4 73.4 26.3 76.9 29.4 83.7C33.1 91.6 39.1 95.4 51.5 97.6L55.5 98.3L52.1 94.5C49.1 91 48.8 90.3 49.3 85.7C49.7 81.4 50.3 80.1 53.5 77.2C57 74 57.6 73.8 62.8 74.2C67.8 74.7 68.8 75.1 72 78.8L75.6 82.8L83.5 74.3L91.4 65.7L87.1 61.8C84.7 59.7 79.8 56.6 76.3 54.8C70.9 52.2 68.4 51.6 61.7 51.3C57.2 51.2 52.4 51.4 51 51.9Z" fill="#2266AD"/>
</svg>
