<?xml version="1.0" standalone="no"?>
<!DOCTYPE svg PUBLIC "-//W3C//DTD SVG 20010904//EN"
 "http://www.w3.org/TR/2001/REC-SVG-20010904/DTD/svg10.dtd">
<svg version="1.0" xmlns="http://www.w3.org/2000/svg"
 width="410.000000pt" height="123.000000pt" viewBox="0 0 410.000000 123.000000"
 preserveAspectRatio="xMidYMid meet">
<metadata>
Created by potrace 1.15, written by Peter Selinger 2001-2017
</metadata>
<g transform="translate(0.000000,123.000000) scale(0.100000,-0.100000)"
fill="#000000" stroke="none">
<path d="M2335 1204 c-189 -33 -277 -55 -495 -129 -184 -62 -312 -112 -360
-141 -25 -15 -25 -15 10 -8 19 3 121 35 225 69 194 65 310 94 323 80 10 -10
-155 -163 -203 -188 -39 -20 -45 -20 -255 -8 -340 20 -919 26 -1036 11 -212
-26 -365 -91 -476 -201 -67 -66 -68 -68 -68 -119 l0 -52 43 64 c39 59 45 63
88 69 59 9 79 19 160 85 78 64 131 89 219 104 116 21 525 24 896 7 543 -25
575 -26 773 -16 284 15 294 27 23 28 -148 1 -232 5 -230 11 8 23 183 213 205
221 42 16 545 23 683 10 206 -20 373 -58 384 -86 8 -23 -46 -52 -123 -65 -36
-6 -118 -21 -181 -33 -160 -31 -95 -34 168 -8 435 42 503 39 688 -34 76 -29
142 -48 183 -52 60 -6 64 -8 77 -39 9 -21 14 -72 14 -139 0 -109 14 -140 26
-59 10 66 -1 161 -27 230 -23 61 -75 124 -103 124 -22 0 -20 8 5 29 20 16 20
17 1 34 -15 14 -47 20 -135 27 -88 6 -170 23 -348 69 -415 107 -579 132 -864
130 -111 0 -186 -7 -290 -25z m660 -39 c132 -17 219 -36 435 -95 165 -45 278
-67 400 -78 77 -7 83 -9 62 -20 -19 -11 -45 -11 -134 -2 -84 9 -156 9 -305 0
-107 -7 -197 -9 -200 -6 -3 3 2 17 11 31 14 21 15 29 5 41 -48 58 -528 104
-869 85 -243 -15 -228 -16 -223 13 5 26 16 29 213 47 124 11 466 2 605 -16z"/>
<path d="M3319 860 c-106 -18 -186 -73 -275 -187 l-61 -78 -64 2 c-35 1 -120
7 -189 13 -167 14 -773 24 -830 13 -31 -7 74 -11 340 -16 411 -7 566 -18 633
-44 23 -9 74 -18 112 -20 l70 -3 50 72 c88 128 195 182 355 181 117 -1 186
-28 261 -103 31 -31 66 -75 78 -97 30 -60 45 -63 21 -4 -28 72 -60 119 -113
168 -99 91 -239 128 -388 103z"/>
<path d="M510 711 c-86 -28 -167 -89 -212 -160 -34 -55 -35 -90 -4 -158 37
-79 97 -117 221 -139 l40 -7 -34 38 c-30 35 -33 42 -28 88 4 43 10 56 42 85
35 32 41 34 93 30 50 -5 60 -9 92 -46 l36 -40 79 85 79 86 -43 39 c-24 21 -73
52 -108 70 -54 26 -79 32 -146 35 -45 1 -93 -1 -107 -6z"/>
</g>
</svg>
